<?xml version="1.0" standalone="no"?>
<!DOCTYPE svg PUBLIC "-//W3C//DTD SVG 20010904//EN"
 "http://www.w3.org/TR/2001/REC-SVG-20010904/DTD/svg10.dtd">
<svg version="1.0" xmlns="http://www.w3.org/2000/svg"
 width="306.000000pt" height="306.000000pt" viewBox="0 0 306.000000 306.000000"
 preserveAspectRatio="xMidYMid meet">
<metadata>
Created by potrace 1.11, written by Peter Selinger 2001-2013
</metadata>
<g transform="translate(0.000000,306.000000) scale(0.100000,-0.100000)"
fill="#000000" stroke="none">
<path d="M1320 2934 c-141 -26 -236 -68 -306 -136 -25 -23 -42 -30 -80 -32
-88 -5 -187 -75 -268 -190 -91 -128 -127 -227 -156 -430 -25 -171 -39 -222
-96 -348 -63 -136 -72 -189 -50 -270 9 -34 33 -90 53 -122 l36 -60 -11 -68
c-20 -114 -16 -167 18 -234 32 -65 68 -97 117 -108 l32 -7 -20 40 c-10 22 -19
45 -19 52 0 23 29 -12 56 -66 29 -60 26 -84 -13 -115 -25 -19 -25 -21 -8 -40
39 -43 125 -37 181 12 19 17 36 29 37 27 1 -2 12 -24 25 -49 12 -25 29 -55 38
-67 15 -21 14 -22 -23 -41 -53 -28 -91 -68 -103 -111 -13 -48 -13 -69 4 -124
16 -53 21 -50 -79 -62 -52 -6 -155 -50 -155 -65 0 -13 208 -112 315 -150 50
-17 149 -45 220 -62 118 -28 149 -32 338 -36 195 -4 215 -2 345 23 75 15 189
44 252 65 135 44 353 147 347 163 -7 23 -93 57 -159 64 -36 3 -71 9 -76 12 -7
4 -6 22 5 54 31 93 -7 181 -98 228 l-39 19 30 41 c16 22 34 56 40 75 20 58 44
35 33 -32 l-6 -37 47 6 c89 13 156 63 197 152 16 33 29 70 29 82 0 21 3 22 44
17 34 -5 54 -1 90 17 51 25 60 34 70 66 6 19 3 21 -30 21 -38 0 -88 37 -97 72
-4 16 -1 17 20 9 33 -12 35 -10 23 32 -15 53 -12 97 16 189 31 104 32 181 3
275 -56 186 -71 251 -90 390 -30 219 -55 284 -166 432 -91 124 -237 228 -455
325 -177 79 -360 120 -458 102z m70 -692 c36 -37 116 -123 178 -190 80 -86
138 -138 194 -175 l80 -52 -43 -7 c-52 -9 -162 -45 -209 -68 -54 -27 -230 -22
-287 8 -43 22 -123 43 -244 64 -56 9 -74 9 -117 -5 -27 -9 -82 -20 -122 -23
l-71 -7 5 34 c3 19 8 86 12 149 7 135 20 168 98 244 38 38 66 56 109 69 84 26
170 36 267 31 l85 -4 65 -68z m-154 -536 c27 -9 61 -27 74 -40 20 -23 22 -31
16 -83 -9 -78 -42 -143 -86 -168 -30 -17 -53 -20 -165 -20 -162 0 -196 13
-237 93 -53 103 -46 199 16 227 43 20 310 14 382 -9z m792 10 c15 -8 38 -26
51 -40 21 -22 23 -32 19 -84 -7 -67 -36 -131 -74 -161 -44 -35 -93 -44 -217
-40 -127 4 -150 14 -193 77 -27 40 -47 143 -34 178 12 31 78 61 157 73 98 14
261 13 291 -3z m-541 -108 c5 -7 20 -42 33 -77 17 -49 21 -79 18 -120 -3 -31
-2 -69 2 -86 5 -25 8 -19 14 38 l8 67 43 -38 c58 -55 101 -67 225 -66 120 1
204 21 238 57 12 13 38 52 56 87 l34 64 7 -38 c8 -40 6 -52 -49 -296 -42 -184
-66 -266 -107 -356 -52 -117 -167 -242 -272 -295 -37 -19 -39 -19 -52 -3 -12
17 -13 16 -20 -4 -7 -23 -7 -23 -28 5 l-21 27 -6 -25 -6 -24 -18 31 c-10 17
-31 39 -47 48 l-28 16 -3 -37 -3 -38 -14 28 c-18 35 -29 35 -24 0 l3 -28 -10
24 c-25 58 -54 59 -84 3 l-15 -27 -1 27 c0 15 -4 29 -9 32 -15 9 -75 -38 -82
-64 -6 -23 -7 -22 -10 10 l-4 35 -31 -32 -31 -32 -63 37 c-35 21 -95 71 -136
116 -111 117 -161 232 -219 501 -15 66 -33 149 -40 185 -15 69 -18 163 -6 193
5 14 14 1 39 -56 61 -137 121 -170 312 -170 110 0 153 11 208 53 37 29 79 96
98 155 9 28 23 58 32 68 18 20 55 23 69 5z m-796 -288 c15 -67 15 -70 -2 -70
-10 0 -29 12 -43 26 l-24 27 21 43 c11 24 23 44 27 44 3 0 12 -31 21 -70z
m1564 6 c34 -45 36 -51 23 -74 -20 -39 -83 -102 -101 -102 -10 0 -17 8 -17 18
0 39 13 59 42 68 17 5 38 20 47 34 l15 25 -25 -22 c-24 -22 -59 -31 -59 -16 0
12 33 124 35 121 2 -2 19 -25 40 -52z m-1609 -65 c14 -16 34 -31 46 -33 16 -2
24 -12 29 -38 9 -41 7 -44 -24 -37 -27 7 -98 104 -90 124 7 18 11 17 39 -16z
m583 -874 c41 -44 94 -79 113 -76 7 1 27 -3 43 -10 17 -7 47 -11 67 -8 20 3
38 1 40 -4 4 -12 64 8 100 33 15 10 29 15 32 10 3 -5 -5 -34 -17 -65 -26 -67
-36 -72 -152 -72 -88 0 -175 20 -175 40 0 27 -43 112 -81 161 -21 28 -39 57
-39 65 0 7 7 2 16 -11 10 -14 33 -42 53 -63z"/>
<path d="M974 1651 c-44 -20 -84 -63 -84 -92 0 -39 91 -79 180 -79 46 0 72 7
129 36 39 19 71 39 71 43 0 21 -49 78 -80 93 -48 25 -161 24 -216 -1z m116
-25 c0 -8 -5 -18 -10 -21 -13 -8 -42 14 -34 26 9 15 44 10 44 -5z m-80 -27 c0
-64 49 -98 107 -74 33 14 43 32 43 75 0 23 3 27 20 23 31 -8 63 -53 49 -69
-19 -23 -117 -54 -170 -54 -51 0 -108 20 -129 45 -15 18 2 50 38 69 38 21 42
20 42 -15z"/>
<path d="M1700 1652 c-31 -15 -80 -72 -80 -93 0 -4 32 -24 71 -43 57 -29 83
-36 129 -36 89 0 180 40 180 79 0 29 -40 72 -84 92 -55 25 -168 26 -216 1z
m110 -26 c0 -22 -19 -30 -35 -16 -22 18 -18 30 10 30 15 0 25 -6 25 -14z m-80
-27 c0 -42 14 -65 48 -77 59 -20 115 29 99 88 -6 23 2 25 37 8 36 -16 61 -55
46 -73 -41 -49 -163 -60 -246 -21 -28 13 -55 29 -58 35 -8 12 45 71 63 71 6 0
11 -14 11 -31z"/>
<path d="M1282 1210 c-29 -48 -1 -107 46 -95 20 5 31 -1 58 -31 30 -32 38 -36
66 -30 19 4 44 19 59 37 20 25 30 30 48 24 46 -14 78 47 47 91 -13 17 -14 15
-9 -23 l6 -43 -40 0 c-29 0 -46 -7 -63 -25 -15 -16 -34 -25 -55 -25 -21 0 -40
9 -55 25 -17 18 -34 25 -63 25 l-40 0 5 45 c3 25 5 45 4 45 -1 0 -7 -9 -14
-20z"/>
<path d="M1125 1045 c-45 -16 -75 -47 -75 -79 0 -29 15 -52 24 -37 9 15 27 14
24 -1 -2 -7 38 -20 102 -35 134 -30 335 -34 450 -8 41 10 86 19 100 20 39 4
40 4 40 19 0 8 -10 22 -22 30 -33 23 -15 20 26 -5 l36 -21 0 21 c0 33 -22 72
-50 86 -35 18 -133 27 -196 18 l-51 -8 40 -55 c22 -29 43 -48 45 -42 3 10 7
10 18 1 11 -9 14 -7 14 11 0 22 1 22 18 7 22 -20 42 -22 42 -5 0 9 3 9 12 0
19 -19 -1 -28 -96 -44 -106 -17 -301 -14 -396 6 -87 19 -122 42 -65 42 24 0
35 -5 35 -15 0 -11 6 -9 23 7 29 28 37 28 29 0 -4 -18 8 -10 58 32 l62 55 -53
7 c-88 10 -152 8 -194 -7z"/>
<path d="M1332 995 c-25 -25 -42 -48 -39 -52 4 -3 15 2 26 11 15 13 20 14 24
4 4 -10 8 -10 21 3 17 16 33 79 20 79 -4 0 -27 -20 -52 -45z"/>
<path d="M1496 1015 c3 -31 23 -57 38 -52 6 3 19 -2 29 -11 34 -30 19 18 -17
54 -41 41 -54 43 -50 9z"/>
</g>
</svg>
